PathFileType	4	(X/Y/Z)	TVC_12_BWA3_walk_RCNL2025.trc
DataRate	CameraRate	NumFrames	NumMarkers	Units	OrigDataRate	OrigDataStartFrame	OrigNumFrames
100	100	9	27	mm	100	222	354
Frame#	Time	R_Shoulder			L_Shoulder			C7			J_Notch			R_Elbow			L_Elbow			R_Wrist			L_Wrist			R_Asis			L_Asis			R_Psis			L_Psis			Sacral			Thoracic			Sternum			R_Thigh_Lateral			R_Knee_Lateral			R_Shank_Lateral			R_Ankle_Lateral			R_Heel			R_Toe			L_Thigh_Lateral			L_Knee_Lateral			L_Shank_Lateral			L_Ankle_Lateral			L_Heel			L_Toe		
		X1	Y1	Z1	X2	Y2	Z2	X3	Y3	Z3	X4	Y4	Z4	X5	Y5	Z5	X6	Y6	Z6	X7	Y7	Z7	X8	Y8	Z8	X9	Y9	Z9	X10	Y10	Z10	X11	Y11	Z11	X12	Y12	Z12	X13	Y13	Z13	X14	Y14	Z14	X15	Y15	Z15	X16	Y16	Z16	X17	Y17	Z17	X18	Y18	Z18	X19	Y19	Z19	X20	Y20	Z20	X21	Y21	Z21	X22	Y22	Z22	X23	Y23	Z23	X24	Y24	Z24	X25	Y25	Z25	X26	Y26	Z26	X27	Y27	Z27
222	2.21000000	-346.301453	1336.860107	486.006836	-389.131195	1333.392944	70.018440	-474.070740	1408.651733	288.167114	-320.881317	1293.010010	278.413910	-452.832489	1021.328186	573.607727	-564.288635	1033.340210	37.363422	-392.035522	777.148834	548.028137	-557.787018	798.467773	102.339508	-394.460052	906.219910	465.073822	-414.582062	906.787354	116.700821	-576.149109	947.085083	364.556488	-588.896362	944.233215	257.059875	-582.522736	945.659149	310.808182	-567.986938	1161.158691	297.258789	-239.959122	1099.700928	267.088440	-504.985413	610.544312	478.868500	-570.316833	487.744293	426.564819	-690.289856	300.280212	466.344055	-777.096802	103.975464	400.741638	-815.602783	117.057632	343.400146	-655.196472	45.824753	377.891449	-368.033051	612.250610	66.317451	-303.371918	480.363831	148.328445	-317.446014	282.551392	106.453438	-305.805847	72.008804	177.910934	-351.745728	55.915577	228.968750	-162.355331	43.174732	197.784302
223	2.22000000	-337.821503	1338.868652	483.517181	-381.781158	1334.752441	67.821808	-466.366333	1409.877075	285.994537	-313.055328	1294.438110	276.016815	-445.639618	1023.847473	571.366516	-556.162964	1034.228149	35.972851	-387.538330	778.951935	545.164124	-549.767151	799.530823	100.439827	-386.042023	908.073975	463.565460	-407.178528	907.788635	114.975464	-568.133179	948.700928	363.554413	-580.808838	945.481201	256.079041	-574.471008	947.091064	309.816727	-559.929382	1162.263550	295.828094	-231.982315	1101.185425	264.726013	-494.800171	611.479248	478.504822	-558.746094	487.798981	426.829742	-682.762817	302.813904	466.735474	-773.484436	108.004219	401.384033	-811.295654	122.465202	343.912537	-653.962280	45.763748	378.157471	-357.139801	614.728821	64.270119	-297.469391	480.305695	146.920227	-314.193268	282.661469	105.833290	-305.697266	72.172127	177.893036	-351.670898	56.168156	229.054367	-162.433716	43.417843	197.661224
224	2.23000000	-329.452667	1340.897827	481.070343	-374.478699	1336.178833	65.645172	-458.730133	1411.110229	283.847534	-305.269775	1295.907349	273.646179	-438.503601	1026.376221	569.167664	-548.163696	1035.234741	34.484955	-383.006790	780.818481	542.288025	-541.659485	800.732971	98.557648	-377.678406	909.910400	462.083099	-399.714081	908.737610	113.252777	-560.152893	950.276489	362.484528	-572.725952	946.742981	255.030792	-566.439423	948.509735	308.757660	-551.910400	1163.368042	294.345245	-224.038162	1102.710327	262.391052	-484.505310	612.336609	478.368164	-546.537659	487.608276	427.221619	-674.753235	305.366028	467.202301	-769.384277	112.186241	402.023071	-806.335571	128.105698	344.393921	-652.659058	45.553429	378.439270	-347.313416	616.494995	62.380474	-292.113892	479.925781	145.677002	-310.973480	282.725128	105.335068	-305.593048	72.285690	177.909561	-351.589935	56.378529	229.159149	-162.446304	43.571133	197.618942
225	2.24000000	-321.219879	1342.906128	478.681122	-367.225586	1337.611694	63.491100	-451.168243	1412.322388	281.725555	-297.534210	1297.384766	271.311462	-431.445251	1028.863525	567.014832	-540.298828	1036.301270	32.893600	-378.423706	782.707275	539.415741	-533.473282	801.997070	96.709167	-369.370422	911.670166	460.618896	-392.161224	909.627563	111.567497	-552.208130	951.754944	361.349396	-564.658630	947.994385	253.910400	-558.433380	949.874664	307.629898	-543.943176	1164.446899	292.811371	-216.130371	1104.244995	260.099762	-473.990204	613.036987	478.438965	-533.661560	487.135284	427.724152	-666.190369	307.910095	467.736816	-764.730713	116.519966	402.665833	-800.651428	133.970764	344.859131	-651.271362	45.208462	378.710938	-339.200867	617.334106	60.806789	-287.185822	479.322418	144.605850	-307.783386	282.750641	104.943726	-305.470093	72.355988	177.954208	-351.489441	56.560905	229.274521	-162.382812	43.618679	197.654343
226	2.25000000	-313.141846	1344.855347	476.363220	-360.021088	1338.994995	61.363739	-443.684113	1413.488892	279.629028	-289.857056	1298.839233	269.022614	-424.482788	1031.262817	564.909180	-532.569702	1037.372192	31.197754	-373.774719	784.578583	536.563171	-525.219772	803.251709	94.903240	-361.122742	913.303711	459.163208	-384.502838	910.459473	109.952553	-544.302490	953.089722	360.155548	-556.620789	949.215515	252.716949	-550.461639	951.152618	306.436249	-536.040527	1165.479614	291.231232	-208.263702	1105.759521	257.868561	-463.108582	613.494690	478.673157	-520.089294	486.353088	428.313232	-656.995117	310.418762	468.325989	-759.455200	121.007652	403.317841	-794.175659	140.054733	345.323883	-649.770142	44.768085	378.951294	-333.217529	617.183838	59.644924	-282.563507	478.598114	143.692474	-304.654083	282.740082	104.635582	-305.317200	72.391319	178.014969	-351.364014	56.727734	229.389923	-162.249741	43.567490	197.750885
227	2.26000000	-305.230835	1346.712036	474.128540	-352.862122	1340.280151	59.268826	-436.278839	1414.589355	277.559662	-282.245636	1300.241943	266.789917	-417.630768	1033.533569	562.849915	-524.971069	1038.398071	29.401300	-369.048477	786.395721	533.745667	-516.912674	804.436218	93.141403	-352.943970	914.772766	457.707245	-376.733154	911.240173	108.436165	-536.442749	954.245605	358.912842	-548.628357	950.390503	251.453842	-542.535553	952.318054	305.183342	-528.214600	1166.450439	289.612885	-200.444382	1107.226074	255.713669	-451.697174	613.627625	479.006744	-505.799469	485.248810	428.958893	-647.084961	312.863220	468.954010	-753.489563	125.654327	403.982147	-786.849792	146.353287	345.803650	-648.110291	44.293823	379.145416	-329.446838	616.159302	58.922188	-278.143524	477.843903	142.906525	-301.630280	282.689301	104.382637	-305.131866	72.400589	178.076569	-351.214874	56.889076	229.494247	-162.064575	43.438412	197.885254
228	2.27000000	-297.493073	1348.448242	471.986969	-345.743744	1341.428101	57.213558	-428.951508	1415.608032	275.520294	-274.706177	1301.567749	264.623810	-410.899780	1035.642578	560.834961	-517.492188	1039.337036	27.512579	-364.236618	788.126282	530.977890	-508.568268	805.503571	91.419174	-344.846710	916.050842	456.245392	-368.857941	911.980469	107.039520	-528.639099	955.199585	357.633118	-540.698853	951.507385	250.128723	-534.668976	953.353485	303.880920	-520.476501	1167.348389	287.966919	-192.680099	1108.619141	253.651199	-439.597656	613.371094	479.362915	-490.783508	483.826752	429.627014	-636.379211	315.212921	469.604004	-746.769714	130.466263	404.658447	-778.629272	152.861343	346.312347	-646.227539	43.867302	379.284698	-327.606476	614.533081	58.598240	-273.854462	477.129089	142.208603	-298.752319	282.589966	104.157059	-304.917206	72.392334	178.123520	-351.047668	57.052380	229.577530	-161.850235	43.258526	198.033264
229	2.28000000	-289.929565	1350.042847	469.946106	-338.659363	1342.409790	55.206310	-421.699707	1416.534302	273.514862	-267.243530	1302.795776	262.534760	-404.295929	1037.565186	558.861450	-510.117432	1040.157471	25.543692	-359.333710	789.743256	528.273392	-500.204102	806.420410	89.728172	-336.847137	917.123596	454.776672	-360.893921	912.693298	105.775131	-520.903870	955.940674	356.329224	-532.850403	952.557617	248.753159	-526.877136	954.249146	302.541191	-512.835815	1168.167236	286.305908	-184.979919	1109.916748	251.696655	-426.679962	612.691833	479.660278	-475.050323	482.111176	430.281128	-624.804810	317.436432	470.259552	-739.239807	135.449112	405.342438	-769.488098	159.570221	346.860535	-644.035583	43.587070	379.365936	-327.097443	612.672668	58.569912	-269.660767	476.497070	141.557663	-296.046265	282.433044	103.934853	-304.679413	72.374069	178.142761	-350.870483	57.222454	229.632431	-161.630203	43.055260	198.173981
230	2.29000000	-282.536957	1351.482178	468.011444	-331.601288	1343.207642	53.256222	-414.519928	1417.362183	271.548157	-259.861511	1303.909790	260.532898	-397.820709	1039.284546	556.926636	-502.828003	1040.837280	23.509672	-354.336853	791.225555	525.644501	-491.836227	807.165527	88.058266	-328.963806	917.987976	453.305634	-352.867981	913.391479	104.646141	-513.251221	956.469543	355.013763	-525.100708	953.535950	247.341888	-519.175964	955.002747	301.177826	-505.300476	1168.905151	284.643341	-177.353867	1111.100586	249.864670	-412.863556	611.598938	479.821381	-458.628662	480.147583	430.883881	-612.302551	319.503510	470.905304	-730.855591	140.605270	406.025055	-759.422241	166.464203	347.453461	-641.424072	43.563267	379.389984	-327.125122	610.952637	58.682125	-265.557922	475.965363	140.917435	-293.522339	282.212097	103.697945	-304.426392	72.351936	178.125916	-350.691833	57.401619	229.655273	-161.424698	42.852253	198.291946
